<?xml version="1.0" encoding="UTF-8"?>
<svg id="Layer_2" data-name="Layer 2" xmlns="http://www.w3.org/2000/svg" viewBox="0 0 64 64">
  <defs>
    <style>
      .cls-1 {
        fill: #ff6900;
      }
    </style>
  </defs>
  <g id="Layer_1-2" data-name="Layer 1">
    <path class="cls-1" d="M5.27,0C2.36,0,0,2.36,0,5.27v53.47c0,2.91,2.36,5.27,5.27,5.27h53.47c2.91,0,5.27-2.36,5.27-5.27V5.27c0-2.91-2.36-5.27-5.27-5.27H5.27ZM37.33,20h13.33v3.43h-13.33v-3.43ZM12.2,20h11.48c1.25,0,7.99-.08,7.99,6.12,0,3.3-2.25,4.41-3.25,4.9,1.5.49,4.24,1.88,4.24,6.12,0,6.58-7.49,6.86-8.48,6.86h-11.98v-24ZM17.32,24.16v5.63h5.49c.75,0,3.24-.42,3.24-2.94s-3.24-2.7-3.74-2.7h-4.99ZM44.4,25.33c6.61,0,8.41,5.16,8.67,6.39.26,1.23.26,2.32.26,3.79h-13.41c0,1.47.78,4.8,4.73,4.8,1.05,0,1.84-.25,2.63-.74.79-.49,1.05-.98,1.31-1.48h4.47c-.79,1.97-1.84,3.44-3.42,4.42-1.58.98-3.42,1.47-5.52,1.47-1.31,0-2.63-.25-3.95-.74-1.05-.49-2.1-1.22-2.89-1.96-.79-.73-1.32-1.72-1.84-2.95-.53-.98-.79-2.46-.79-3.68s.49-9.33,9.73-9.33ZM44.15,28.62c-3.86,0-4.49,3.72-4.49,3.97h8.46c-.26-1.24-1.37-3.97-3.96-3.97ZM17.26,33.23v6.61h5.74c.5,0,3.99-.16,3.99-3.18,0-3.02-2.74-3.43-3.99-3.43h-5.74Z"/>
  </g>
</svg>