<?xml version="1.0" encoding="UTF-8"?>
<svg id="Layer_2" data-name="Layer 2" xmlns="http://www.w3.org/2000/svg" viewBox="0 0 64 64">
  <defs>
    <style>
      .cls-1 {
        fill: #ff6900;
      }
    </style>
  </defs>
  <g id="Layer_1-2" data-name="Layer 1">
    <path class="cls-1" d="M0,4.58C0,2.05,2.1,0,4.7,0h54.6c2.6,0,4.7,2.05,4.7,4.58v54.83c0,2.53-2.1,4.58-4.7,4.58H4.7c-2.6,0-4.7-2.05-4.7-4.58V4.58ZM19.77,53.58v-28.9h-9.6v28.9h9.6ZM14.97,20.73c3.35,0,5.43-2.22,5.43-4.99-.06-2.84-2.08-4.99-5.37-4.99s-5.44,2.16-5.44,4.99,2.08,4.99,5.31,4.99h.06ZM34.6,53.58v-16.14c0-.86.06-1.73.32-2.34.69-1.72,2.27-3.51,4.93-3.51,3.48,0,4.86,2.65,4.86,6.54v15.46h9.6v-16.58c0-8.88-4.74-13.01-11.06-13.01-5.1,0-7.38,2.8-8.66,4.77v.1h-.06l.06-.1v-4.09h-9.6c.12,2.71,0,28.9,0,28.9h9.6Z"/>
  </g>
</svg>